Coordinates
version=1
nRows=6
nColumns=34
inDegrees=yes

Units are S.I. units (second, meters, Newtons, ...)
Angles are in degrees.

endheader
time	pelvis_tilt	pelvis_list	pelvis_rotation	pelvis_tx	pelvis_ty	pelvis_tz	hip_flexion_r	hip_adduction_r	hip_rotation_r	knee_angle_r	ankle_angle_r	subtalar_angle_r	mtp_angle_r	hip_flexion_l	hip_adduction_l	hip_rotation_l	knee_angle_l	socket_flexion	socket_adduction	socket_rotation	socket_tx	socket_ty	socket_tz	pros_ankle_rx	pros_ankle_ry	pros_ankle_rz	pros_ankle_tx	pros_ankle_ty	pros_ankle_tz	foot_flex	lumbar_extension	lumbar_bending	lumbar_rotation
      0.60000000	      0.82111552	     -5.23415289	      4.77437617	     -0.00548687	      1.02252827	      0.35282709	     19.51833895	      4.56432635	    -10.50557810	      3.97718555	     13.94443624	      9.77771762	      4.61971752	    -18.18323638	     -6.72345188	     -9.03216669	     -9.40559657	      3.98282731	      0.08911127	     13.47271139	      0.00000000	     -0.01344913	      0.00000000	      0.00000000	      0.00000000	      0.00000000	      0.00000000	      0.00000000	      0.00000000	     14.59294483	     -9.70463047	     -0.19696755	    -26.82870256
      0.60416667	      0.80830419	     -5.25436507	      4.95655274	      0.00051153	      1.02132932	      0.35283011	     19.63462932	      4.55387017	    -10.30355876	      3.83412010	     13.89419390	      9.82655482	      4.64005906	    -18.39538971	     -6.85771154	     -8.95450250	     -9.53886496	      4.08521633	      0.09890323	     13.55816852	      0.00000000	     -0.01342512	      0.00000000	      0.00000000	      0.00000000	      0.00000000	      0.00000000	      0.00000000	      0.00000000	     14.69565569	     -9.64812932	     -0.06725673	    -26.88041556
      0.60833333	      0.80009028	     -5.30487375	      5.11752781	      0.00661074	      1.02017074	      0.35282145	     19.77110903	      4.57508930	    -10.09569142	      3.57491709	     13.79261846	      9.86199266	      4.67341036	    -18.61913145	     -7.01660431	     -8.87964178	     -9.68171450	      4.17900211	      0.11454754	     13.63432190	      0.00000000	     -0.01337024	      0.00000000	      0.00000000	      0.00000000	      0.00000000	      0.00000000	      0.00000000	      0.00000000	     14.80749678	     -9.59343867	      0.14198616	    -26.97122669
      0.61250000	      0.77745126	     -5.44008772	      5.23922976	      0.01275319	      1.01891378	      0.35279865	     20.01340262	      4.67476578	     -9.97816814	      3.11768643	     13.60233009	      9.83712947	      4.77233881	    -18.82657755	     -7.24089092	     -8.91180382	     -9.85267391	      4.25860516	      0.12687375	     13.63192996	      0.00000000	     -0.01352933	      0.00000000	      0.00000000	      0.00000000	      0.00000000	      0.00000000	      0.00000000	      0.00000000	     14.89903131	     -9.58049870	      0.53478496	    -27.16976517
      0.61666667	      0.77194364	     -5.56236022	      5.39606799	      0.01892011	      1.01774980	      0.35279842	     20.22220443	      4.76018382	     -9.86293275	      2.62809770	     13.38630300	      9.81843309	      4.90574884	    -19.02612900	     -7.47900484	     -8.89283953	    -10.05681241	      4.34192937	      0.13465709	     13.69857818	      0.00000000	     -0.01364124	      0.00000000	      0.00000000	      0.00000000	      0.00000000	      0.00000000	      0.00000000	      0.00000000	     14.94863424	     -9.53347059	      0.81271776	    -27.30808909
      0.62083333	      0.78775429	     -5.66727077	      5.54982215	      0.02511648	      1.01665689	      0.35281749	     20.40905039	      4.83266526	     -9.70765728	      2.08972165	     13.12345422	      9.80275749	      5.03478535	    -19.23609233	     -7.70026091	     -8.86049346	    -10.27961124	      4.42894701	      0.14919433	     13.74328187	      0.00000000	     -0.01371122	      0.00000000	      0.00000000	      0.00000000	      0.00000000	      0.00000000	      0.00000000	      0.00000000	     14.99108166	     -9.49856730	      1.06522048	    -27.40138943
